<svg width="22" height="24" fill="none" xmlns="http://www.w3.org/2000/svg"><g filter="url(#a)"><path d="m15.996 11.123-1.838-.21a1.441 1.441 0 0 0-1.187.412l-1.332 1.332a10.888 10.888 0 0 1-4.769-4.77L8.21 6.55a1.44 1.44 0 0 0 .412-1.187l-.21-1.824a1.448 1.448 0 0 0-1.44-1.28H5.72c-.818 0-1.498.68-1.448 1.498.384 6.18 5.327 11.115 11.5 11.499.817.05 1.498-.63 1.498-1.448v-1.252a1.434 1.434 0 0 0-1.274-1.432Z" fill="#212121"/></g><defs><filter id="a" x="-2" y="0" width="26" height="26" filterUnits="userSpaceOnUse" color-interpolation-filters="sRGB"><feFlood flood-opacity="0" result="BackgroundImageFix"/><feColorMatrix in="SourceAlpha" values="0 0 0 0 0 0 0 0 0 0 0 0 0 0 0 0 0 0 127 0" result="hardAlpha"/><feOffset dy="4"/><feGaussianBlur stdDeviation="2"/><feComposite in2="hardAlpha" operator="out"/><feColorMatrix values="0 0 0 0 0 0 0 0 0 0 0 0 0 0 0 0 0 0 0.25 0"/><feBlend in2="BackgroundImageFix" result="effect1_dropShadow_1_3130"/><feBlend in="SourceGraphic" in2="effect1_dropShadow_1_3130" result="shape"/></filter></defs></svg>