<svg aria-hidden="true" style="position:absolute;width:0;height:0;overflow:hidden" xmlns="http://www.w3.org/2000/svg"><defs>
<symbol id="icon-icon-check" viewBox="0 0 42 32"><path fill="#fff" style="fill:var(--color1, #fff);stroke:var(--color1, #fff)" stroke="#fff" stroke-width=".64" d="m6.268 15.206-.221-.211-.221.208-3.088 2.927.243.234 11.418 10.89.221-.211 24.278-23.16-.243-.231-3.046-2.905-.221.211-20.989 20.005-8.132-7.757z"/></symbol><symbol id="icon-icon-send" viewBox="0 0 32 32"><path fill="#fff" style="fill:var(--color1, #fff)" d="M32.021 0 0 18.012l10.233 3.789L26.017 7.005 14.012 23.202l.009.003-.012-.003v8.819l5.738-6.695 7.271 2.692L32.02 0z"/></symbol><symbol id="icon-person-black" viewBox="0 0 28 32"><path fill="#2196f3" style="fill:var(--color2, #2196f3)" d="M13.913 12.528a4.176 4.176 0 0 0 0-8.352 4.176 4.176 0 0 0 0 8.352zm0 2.088c-2.788 0-8.352 1.399-8.352 4.176v1.044c0 .573.471 1.044 1.044 1.044h14.616c.573 0 1.044-.471 1.044-1.044v-1.044c0-2.777-5.565-4.176-8.352-4.176z"/></symbol><symbol id="icon-phone-black" viewBox="0 0 29 32"><path d="m21.338 14.84-2.452-.28a1.915 1.915 0 0 0-1.583.55l-1.777 1.777c-2.754-1.421-4.942-3.61-6.325-6.283l-.038-.081 1.788-1.784a1.915 1.915 0 0 0 .549-1.593l.001.009-.28-2.434a1.935 1.935 0 0 0-1.919-1.708H7.63c-1.091 0-1.999.907-1.932 1.999.512 8.245 7.107 14.83 15.343 15.342 1.09.067 1.999-.841 1.999-1.932V16.743c0-.981-.739-1.79-1.691-1.9l-.009-.001z"/></symbol><symbol id="icon-email-black" viewBox="0 0 32 32"><path d="M26.684 5.337H5.337a2.664 2.664 0 0 0-2.654 2.668l-.014 16.01a2.676 2.676 0 0 0 2.668 2.668h21.347a2.676 2.676 0 0 0 2.668-2.668V8.005a2.676 2.676 0 0 0-2.668-2.668zm-.534 5.671-9.432 5.895a1.347 1.347 0 0 1-1.422-.003l.006.003-9.432-5.895a1.133 1.133 0 1 1 1.205-1.919l-.004-.003 8.939 5.589 8.939-5.591a1.133 1.133 0 1 1 1.206 1.918l-.005.003z"/></symbol></defs></svg>